<svg width="14" height="16" viewBox="0 0 14 16" fill="none" xmlns="http://www.w3.org/2000/svg"><path d="M13.1502 8.95742V5.11853C13.1502 5.11853 13.3606 1.173 7.04852 0H6.94332C0.631211 1.173 0.841614 5.11853 0.841614 5.11853V8.95742C0.841614 10.9835 0 11.6233 0 11.6233C1.26242 16.3153 4.41848 15.9954 4.41848 15.9954C2.73525 13.756 4.41848 9.81051 4.41848 9.81051C1.99883 9.4906 2.41964 6.93134 2.63005 6.18489C2.63005 6.18489 4.94448 6.07825 6.1017 7.89106V12.3698L7.04852 13.3295L7.89014 12.4764V7.9977C9.15256 6.07825 11.3618 6.18489 11.3618 6.29152C11.5722 7.03797 11.993 9.59724 9.57336 9.81051C9.57336 9.81051 11.2566 13.8627 9.57336 15.9954C9.57336 15.9954 12.7294 16.3153 13.9918 11.6233C14.097 11.6233 13.1502 10.9835 13.1502 8.95742Z" fill="url(#paint0_linear_427_20)"/><defs><linearGradient id="paint0_linear_427_20" x1="7" y1="0" x2="7" y2="16" gradientUnits="userSpaceOnUse"><stop stop-color="#B88F4C"/><stop offset="1" stop-color="#67511D"/></linearGradient></defs></svg>