<svg width="16" height="16" viewBox="0 0 16 16" fill="none" xmlns="http://www.w3.org/2000/svg">
<path d="M14.1502 8.95742V5.11853C14.1502 5.11853 14.3606 1.173 8.04852 0H7.94332C1.63121 1.173 1.84161 5.11853 1.84161 5.11853V8.95742C1.84161 10.9835 1 11.6233 1 11.6233C2.26242 16.3153 5.41848 15.9954 5.41848 15.9954C3.73525 13.756 5.41848 9.81051 5.41848 9.81051C2.99883 9.4906 3.41964 6.93134 3.63005 6.18489C3.63005 6.18489 5.94448 6.07825 7.1017 7.89106V12.3698L8.04852 13.3295L8.89014 12.4764V7.9977C10.1526 6.07825 12.3618 6.18489 12.3618 6.29152C12.5722 7.03797 12.993 9.59724 10.5734 9.81051C10.5734 9.81051 12.2566 13.8627 10.5734 15.9954C10.5734 15.9954 13.7294 16.3153 14.9918 11.6233C15.097 11.6233 14.1502 10.9835 14.1502 8.95742Z" fill="#937341"/>
</svg>
