<svg width="15" height="16" viewBox="0 0 15 16" fill="none" xmlns="http://www.w3.org/2000/svg">
<g clip-path="url(#clip0_294_13)">
<path fill-rule="evenodd" clip-rule="evenodd" d="M1.16551 0L2.31962 1.38157V13.4585L1.10647 15.5555H11.6807L13.3529 13.3663H5.57435V0L1.16551 0ZM13.7273 8.352C13.7273 10.0869 13.0411 11.6637 11.9257 12.8323H12.8037C13.7946 11.6043 14.3888 10.0464 14.3888 8.352C14.3888 4.39879 11.1589 1.18314 7.188 1.18314C6.81473 1.18314 6.44847 1.21285 6.08979 1.26783V1.93396C6.44719 1.87329 6.81347 1.84169 7.188 1.84169C10.7938 1.84169 13.7273 4.76219 13.7273 8.352V8.352ZM0.661485 8.3646C0.661485 9.71207 1.07475 10.9653 1.78195 12.0049V13.0781C0.673547 11.8166 0 10.1683 0 8.3646C0 6.56085 0.673547 4.91259 1.78195 3.6511V4.72425C1.07475 5.7639 0.661485 7.01713 0.661485 8.3646V8.3646Z" fill="#937341"/>
</g>
<defs>
<clipPath id="clip0_294_13">
<rect width="14.6667" height="16" fill="white"/>
</clipPath>
</defs>
</svg>
